<svg width="110" height="35" viewBox="0 0 110 35" fill="none" xmlns="http://www.w3.org/2000/svg">
<path fill-rule="evenodd" clip-rule="evenodd" d="M17.0863 5.14362L4.8143 14.2022L13.8288 20.8568L7.33137 25.6528L2.67948 22.2178C1.29688 21.1927 0.500098 19.4371 0.5 17.3869V17.3868V17.3865V11.0178V11.0177V11.0174C0.500098 8.96721 1.29688 7.21159 2.67948 6.18647L10.5889 0.347656L17.0862 5.14356L17.0863 5.14354L17.0862 5.14358L17.0863 5.14362ZM10.9648 14.2051L19.9793 20.8597L7.70703 29.9185L14.2044 34.7145L22.1138 28.8757C23.4965 27.8505 24.2933 26.0947 24.2933 24.0443L24.2936 24.0445V17.6754C24.2936 15.6251 23.4968 13.8693 22.1141 12.8441L17.4622 9.40918L10.9648 14.2051Z" fill="#493BEB"/>
<path d="M106.55 12.6367H109.102L104.734 24.5871C102.894 29.6176 99.0901 29.6176 98.354 29.5194C96.1946 29.2495 94.3051 27.5563 94.0352 25.7159H94.5259C95.0903 27.0164 96.7835 28.3415 98.5503 28.1207C99.8263 27.9489 101.127 26.7956 102.108 24.6853H99.5809L95.1885 12.6367H97.7405L101.765 23.6792H102.452L106.55 12.6367Z" fill="white"/>
<path d="M89.6309 12.6364H93.508V24.685H90.956V15.1885H89.6309V12.6364ZM91.5694 10.796C90.6615 10.796 89.9253 10.0598 89.9253 9.15191C89.9253 8.24398 90.6615 7.50781 91.5694 7.50781C92.4774 7.50781 93.2135 8.24398 93.2135 9.15191C93.2135 10.0598 92.4774 10.796 91.5694 10.796Z" fill="white"/>
<path d="M84.8745 6.28301C86.3959 6.2094 87.6719 6.87194 88.04 7.16641V9.12951C87.2547 8.6142 86.494 8.29519 85.4634 8.34427C82.4942 8.4915 83.1813 12.6386 83.1813 12.6386H87.2793V14.6998H83.1813V24.6871H80.6293V14.6998H78.4453V12.6386H81.3654C81.3654 12.6386 80.8256 11.7552 80.6293 10.5037C80.163 7.50995 82.1752 6.40571 84.8745 6.28301Z" fill="white"/>
<path d="M70.6614 12.2695C73.8024 12.2695 76.0845 13.6437 76.0845 16.8583V24.6862H74.7594L73.7287 20.76C72.7717 23.7291 70.5387 24.8825 68.2566 24.8825C66.3916 24.8825 64.8457 23.9745 64.8457 21.5452C64.9439 19.1649 67.1524 18.0116 69.6062 17.7908C71.2013 17.6435 72.7227 17.7908 73.5324 17.9135V17.0301C73.5324 14.7479 72.3791 14.1345 70.6614 14.1345C68.8946 14.1345 67.1523 15.116 66.0726 16.343L65.8273 14.3308C66.8824 13.3492 68.5756 12.2695 70.6614 12.2695ZM73.4834 20.4409V18.7478C72.8208 18.6496 70.9068 18.4042 69.5081 18.7232C67.6922 19.1649 67.2505 20.6618 67.5204 21.6924C67.7167 22.5513 68.4529 23.1648 69.3854 23.1648C71.0049 23.1648 72.7717 22.036 73.4834 20.4409Z" fill="white"/>
<path d="M57.3333 12.2695C60.4742 12.2695 62.7563 13.6437 62.7563 16.8583V24.6862H61.4312L60.4006 20.76C59.4436 23.7291 57.2106 24.8825 54.9285 24.8825C53.0635 24.8825 51.5176 23.9745 51.5176 21.5452C51.6157 19.1649 53.8242 18.0116 56.2781 17.7908C57.8731 17.6435 59.3945 17.7908 60.2043 17.9135V17.0301C60.2043 14.7479 59.051 14.1345 57.3333 14.1345C55.5665 14.1345 53.8242 15.116 52.7445 16.343L52.4991 14.3308C53.5543 13.3492 55.2475 12.2695 57.3333 12.2695ZM60.1552 20.4409V18.7478C59.4927 18.6496 57.5787 18.4042 56.1799 18.7232C54.3641 19.1649 53.9224 20.6618 54.1923 21.6924C54.3886 22.5513 55.1248 23.1648 56.0573 23.1648C57.6768 23.1648 59.4436 22.036 60.1552 20.4409Z" fill="white"/>
<path d="M41.6941 24.909C37.2035 24.909 34.627 22.8968 34.627 19.4369H37.1054C37.1054 21.0073 38.8476 22.7251 41.6941 22.7251C43.3137 22.7251 46.6019 22.357 46.6019 19.9276C46.6019 18.0136 44.1725 17.7191 41.4978 17.302C38.2342 16.7867 34.627 16.075 34.627 12.0507C34.627 8.36987 38.4305 7.26562 42.3567 7.26562C46.8227 7.26562 49.4238 9.30234 49.3993 12.7378H46.9454C46.9209 11.1673 45.1786 9.44958 42.3567 9.44958C40.7371 9.44958 37.4244 9.8422 37.4244 12.2715C37.4244 14.1119 39.5592 14.5782 42.0131 14.9953C45.3995 15.5843 49.4238 16.0996 49.4238 20.1239C49.4238 23.8048 45.6203 24.909 41.6941 24.909Z" fill="white"/>
</svg>
