<svg width="123" height="39" viewBox="0 0 123 39" fill="none" xmlns="http://www.w3.org/2000/svg">
<path fill-rule="evenodd" clip-rule="evenodd" d="M0.710938 19.4962C0.711014 21.7969 1.60516 23.7671 3.15671 24.9175L8.37698 28.7721L15.6683 23.3902L5.55228 15.9225L19.3238 5.757L19.3236 5.75705L19.3238 5.75694L12.0325 0.375L3.15671 6.92722C1.60514 8.07761 0.710999 10.0478 0.710938 12.3486V12.3488V12.3489V19.4959V19.496V19.4961V19.4962ZM12.453 15.9255L22.5689 23.3932L8.79688 33.559L16.0882 38.941L24.9639 32.3888C26.5156 31.2383 27.4097 29.268 27.4097 26.9671V26.9667L27.4103 26.9671V19.8199C27.4103 17.519 26.5162 15.5487 24.9645 14.3982L19.7443 10.5436L12.453 15.9255Z" fill="#493BEB"/>
<path d="M119.718 14.168H122.582L117.68 27.5785C115.615 33.2236 111.346 33.2236 110.52 33.1134C108.097 32.8105 105.977 30.9105 105.674 28.8452H106.225C106.858 30.3046 108.758 31.7916 110.741 31.5438C112.173 31.351 113.632 30.0568 114.733 27.6886H111.897L106.968 14.168H109.832L114.348 26.5596H115.119L119.718 14.168Z" fill="#1F1F1F"/>
<path d="M100.734 14.1693H105.085V27.69H102.221V17.0331H100.734V14.1693ZM102.91 12.104C101.891 12.104 101.065 11.2779 101.065 10.259C101.065 9.24017 101.891 8.41406 102.91 8.41406C103.929 8.41406 104.755 9.24017 104.755 10.259C104.755 11.2779 103.929 12.104 102.91 12.104Z" fill="#1F1F1F"/>
<path d="M95.3944 7.03761C97.1017 6.955 98.5336 7.6985 98.9466 8.02894V10.2319C98.0655 9.65362 97.2118 9.29564 96.0553 9.35072C92.7233 9.51594 93.4943 14.1697 93.4943 14.1697H98.093V16.4828H93.4943V27.6903H90.6305V16.4828H88.1797V14.1697H91.4566C91.4566 14.1697 90.8508 13.1784 90.6305 11.774C90.1073 8.41446 92.3653 7.17529 95.3944 7.03761Z" fill="#1F1F1F"/>
<path d="M79.4442 13.7578C82.969 13.7578 85.5299 15.2999 85.5299 18.9072V27.6915H84.0429L82.8864 23.2856C81.8124 26.6176 79.3065 27.9118 76.7456 27.9118C74.6528 27.9118 72.918 26.893 72.918 24.1668C73.0281 21.4957 75.5064 20.2015 78.2601 19.9536C80.05 19.7884 81.7573 19.9536 82.6661 20.0913V19.1C82.6661 16.539 81.3718 15.8506 79.4442 15.8506C77.4616 15.8506 75.5064 16.9521 74.2948 18.329L74.0194 16.0709C75.2035 14.9694 77.1036 13.7578 79.4442 13.7578ZM82.611 22.9276V21.0276C81.8675 20.9174 79.7196 20.6421 78.15 21C76.1123 21.4957 75.6166 23.1755 75.9195 24.332C76.1398 25.2958 76.9659 25.9842 78.0123 25.9842C79.8297 25.9842 81.8124 24.7175 82.611 22.9276Z" fill="#1F1F1F"/>
<path d="M64.4872 13.7578C68.0119 13.7578 70.5729 15.2999 70.5729 18.9072V27.6915H69.0859L67.9293 23.2856C66.8554 26.6176 64.3495 27.9118 61.7886 27.9118C59.6958 27.9118 57.9609 26.893 57.9609 24.1668C58.0711 21.4957 60.5494 20.2015 63.3031 19.9536C65.093 19.7884 66.8003 19.9536 67.709 20.0913V19.1C67.709 16.539 66.4148 15.8506 64.4872 15.8506C62.5045 15.8506 60.5494 16.9521 59.3378 18.329L59.0624 16.0709C60.2465 14.9694 62.1466 13.7578 64.4872 13.7578ZM67.654 22.9276V21.0276C66.9105 20.9174 64.7626 20.6421 63.193 21C61.1552 21.4957 60.6596 23.1755 60.9625 24.332C61.1828 25.2958 62.0089 25.9842 63.0553 25.9842C64.8727 25.9842 66.8554 24.7175 67.654 22.9276Z" fill="#1F1F1F"/>
<path d="M46.9385 27.9397C41.8992 27.9397 39.0078 25.6817 39.0078 21.799H41.789C41.789 23.5613 43.7442 25.4889 46.9385 25.4889C48.7559 25.4889 52.4459 25.0759 52.4459 22.3497C52.4459 20.2018 49.7197 19.8714 46.7182 19.4032C43.0557 18.825 39.0078 18.0264 39.0078 13.5103C39.0078 9.37979 43.276 8.14062 47.682 8.14062C52.6937 8.14062 55.6126 10.4262 55.5851 14.2814H52.8314C52.8038 12.519 50.8487 10.5914 47.682 10.5914C45.8645 10.5914 42.147 11.032 42.147 13.7582C42.147 15.8234 44.5427 16.3466 47.2964 16.8148C51.0965 17.4757 55.6126 18.0539 55.6126 22.57C55.6126 26.7006 51.3444 27.9397 46.9385 27.9397Z" fill="#1F1F1F"/>
</svg>
