<svg width="110" height="111" viewBox="0 0 110 111" fill="none" xmlns="http://www.w3.org/2000/svg">
<mask id="mask0_2717_66" style="mask-type:alpha" maskUnits="userSpaceOnUse" x="0" y="0" width="110" height="111">
<rect y="0.753906" width="110" height="110" rx="55" fill="#1F1F1F"/>
</mask>
<g mask="url(#mask0_2717_66)">
<rect y="0.753906" width="110" height="110" rx="55" fill="#1F1F1F"/>
<path d="M33.4627 63.8703C32.6817 64.6514 32.6817 65.9177 33.4627 66.6988C34.2438 67.4798 35.5101 67.4798 36.2912 66.6988L33.4627 63.8703ZM81.3591 41.9844C81.3591 40.8798 80.4636 39.9844 79.3591 39.9844L61.3591 39.9844C60.2545 39.9844 59.3591 40.8798 59.3591 41.9844C59.3591 43.0889 60.2545 43.9844 61.3591 43.9844L77.3591 43.9844L77.3591 59.9844C77.3591 61.0889 78.2545 61.9844 79.3591 61.9844C80.4636 61.9844 81.3591 61.0889 81.3591 59.9844L81.3591 41.9844ZM36.2912 66.6988L44.764 58.226L41.9355 55.3975L33.4627 63.8703L36.2912 66.6988ZM65.9459 58.226L80.7733 43.3986L77.9449 40.5702L63.1175 55.3975L65.9459 58.226ZM52.5265 58.226C56.2322 61.9316 62.2402 61.9316 65.9459 58.226L63.1175 55.3975C60.9739 57.5411 57.4985 57.5411 55.3549 55.3975L52.5265 58.226ZM44.764 58.226C46.9075 56.0824 50.3829 56.0824 52.5265 58.226L55.3549 55.3975C51.6493 51.6919 45.6412 51.6919 41.9355 55.3975L44.764 58.226Z" fill="white"/>
<g filter="url(#filter0_d_2717_66)">
<rect x="39.1133" y="61.0469" width="8.47278" height="8.47278" rx="4.23639" transform="rotate(90 39.1133 61.0469)" fill="#FFFDFF"/>
</g>
</g>
<defs>
<filter id="filter0_d_2717_66" x="-16.0696" y="14.3366" width="101.893" height="101.893" filterUnits="userSpaceOnUse" color-interpolation-filters="sRGB">
<feFlood flood-opacity="0" result="BackgroundImageFix"/>
<feColorMatrix in="SourceAlpha" type="matrix" values="0 0 0 0 0 0 0 0 0 0 0 0 0 0 0 0 0 0 127 0" result="hardAlpha"/>
<feMorphology radius="15.5701" operator="dilate" in="SourceAlpha" result="effect1_dropShadow_2717_66"/>
<feOffset/>
<feGaussianBlur stdDeviation="15.5701"/>
<feComposite in2="hardAlpha" operator="out"/>
<feColorMatrix type="matrix" values="0 0 0 0 0.286275 0 0 0 0 0.231373 0 0 0 0 0.921569 0 0 0 1 0"/>
<feBlend mode="normal" in2="BackgroundImageFix" result="effect1_dropShadow_2717_66"/>
<feBlend mode="normal" in="SourceGraphic" in2="effect1_dropShadow_2717_66" result="shape"/>
</filter>
</defs>
</svg>
