<svg width="110" height="111" viewBox="0 0 110 111" fill="none" xmlns="http://www.w3.org/2000/svg">
<mask id="mask0_2717_63" style="mask-type:alpha" maskUnits="userSpaceOnUse" x="0" y="0" width="110" height="111">
<rect y="0.28125" width="110" height="110" rx="55" fill="#1F1F1F"/>
</mask>
<g mask="url(#mask0_2717_63)">
<rect y="0.28125" width="110" height="110" rx="55" fill="#1F1F1F"/>
<path d="M57.4436 69.797C55.3353 69.7985 53.274 69.1745 51.5205 68.0039C49.7671 66.8334 48.4003 65.169 47.5932 63.2213C46.7861 61.2737 46.5749 59.1303 46.9865 57.0626C47.2656 55.6604 47.8225 54.3356 48.6173 53.1634C49.2448 52.2379 50.546 52.246 51.3369 53.0364C52.1285 53.8275 52.0932 55.1043 51.5776 56.0976C51.0937 57.0297 50.8343 58.0726 50.8342 59.1422C50.834 60.8951 51.5302 62.5762 52.7696 63.8158C54.0089 65.0554 55.6899 65.7519 57.4428 65.7521C59.1957 65.7523 60.8769 65.0561 62.1165 63.8168L74.3272 51.606C75.5667 50.3664 76.263 48.6852 76.2629 46.9322C76.2628 45.1792 75.5664 43.4981 74.3268 42.2586C73.0872 41.0191 71.406 40.3228 69.653 40.3229C68.5826 40.3229 67.539 40.5826 66.6064 41.0671C65.6141 41.5825 64.3384 41.618 63.5477 40.8273C62.757 40.0366 62.7489 38.7352 63.6746 38.1081C65.4266 36.9211 67.5064 36.2735 69.653 36.2734C71.0528 36.2734 72.4389 36.549 73.7321 37.0847C75.0254 37.6203 76.2004 38.4054 77.1903 39.3952C78.1801 40.3849 78.9653 41.5599 79.501 42.8531C80.0367 44.1463 80.3124 45.5324 80.3125 46.9321C80.3125 48.3319 80.0369 49.718 79.5012 51.0112C78.9656 52.3045 78.1805 53.4795 77.1908 54.4694L64.98 66.6801C63.9911 67.6705 62.8162 68.4557 61.5228 68.9906C60.2295 69.5255 58.8432 69.7995 57.4436 69.797Z" fill="white"/>
<path d="M40.3477 74.6818C38.2396 74.6827 36.1787 74.0583 34.4257 72.8877C32.6726 71.717 31.3062 70.0526 30.4993 68.1052C29.6924 66.1577 29.4812 64.0147 29.8926 61.9472C30.3039 59.8797 31.3193 57.9807 32.8102 56.4904L45.0209 44.2797C46.0093 43.2837 47.1846 42.4927 48.4794 41.952C49.7743 41.4113 51.1631 41.1316 52.5662 41.1289C53.9694 41.1262 55.3593 41.4006 56.6562 41.9364C57.953 42.4721 59.1314 43.2586 60.1235 44.2508C61.1157 45.243 61.9022 46.4213 62.438 47.7182C62.9737 49.015 63.2481 50.4049 63.2454 51.8081C63.2427 53.2113 62.963 54.6001 62.4223 55.8949C62.1414 56.5676 61.7929 57.2081 61.3832 57.8068C60.7538 58.7267 59.4573 58.716 58.6691 57.9278C57.8761 57.1349 57.9145 55.8545 58.4348 54.861C58.5228 54.693 58.6037 54.521 58.6772 54.3454C59.0132 53.5423 59.1872 52.6806 59.1893 51.8101C59.1913 50.9395 59.0214 50.0771 58.6892 49.2723C58.357 48.4676 57.8691 47.7365 57.2535 47.1209C56.6379 46.5053 55.9067 46.0174 55.102 45.6852C54.2973 45.3529 53.4349 45.183 52.5643 45.1851C51.6937 45.1871 50.8321 45.3611 50.0289 45.6972C49.2258 46.0332 48.497 46.5245 47.8843 47.143L35.6735 59.3538C34.4428 60.5951 33.7539 62.2734 33.7575 64.0214C33.7612 65.7694 34.4572 67.4448 35.6932 68.6809C36.9292 69.9171 38.6045 70.6132 40.3525 70.6171C41.4192 70.6195 42.4599 70.3639 43.3913 69.8847C44.3851 69.3734 45.6592 69.3405 46.4495 70.1308C47.2418 70.9232 47.2504 72.2271 46.3226 72.8554C45.7282 73.2578 45.0932 73.5999 44.4267 73.8756C43.1334 74.4104 41.7472 74.6844 40.3477 74.6818Z" fill="white"/>
<g filter="url(#filter0_d_2717_63)">
<rect x="53.0217" y="50.4492" width="3.93323" height="3.93323" rx="1.96661" fill="#FFFDFF"/>
</g>
</g>
<defs>
<filter id="filter0_d_2717_63" x="6.31149" y="3.73899" width="97.3538" height="97.3541" filterUnits="userSpaceOnUse" color-interpolation-filters="sRGB">
<feFlood flood-opacity="0" result="BackgroundImageFix"/>
<feColorMatrix in="SourceAlpha" type="matrix" values="0 0 0 0 0 0 0 0 0 0 0 0 0 0 0 0 0 0 127 0" result="hardAlpha"/>
<feMorphology radius="15.5701" operator="dilate" in="SourceAlpha" result="effect1_dropShadow_2717_63"/>
<feOffset/>
<feGaussianBlur stdDeviation="15.5701"/>
<feComposite in2="hardAlpha" operator="out"/>
<feColorMatrix type="matrix" values="0 0 0 0 0.286275 0 0 0 0 0.231373 0 0 0 0 0.921569 0 0 0 1 0"/>
<feBlend mode="normal" in2="BackgroundImageFix" result="effect1_dropShadow_2717_63"/>
<feBlend mode="normal" in="SourceGraphic" in2="effect1_dropShadow_2717_63" result="shape"/>
</filter>
</defs>
</svg>
