<svg width="65" height="44" viewBox="0 0 65 44" fill="none" xmlns="http://www.w3.org/2000/svg">
<path opacity="0.8" d="M13.39 21.4592C15.6195 21.4592 17.7905 22.498 19.682 24.4755L19.8055 24.602L22.8085 20.88L22.7305 20.7734C20.2345 17.7572 17.2315 16.2857 13.559 16.2857C9.867 16.2857 6.4805 17.5508 4.043 19.8612C1.3975 22.3515 0 25.8671 0 30.002C0 34.1568 1.3975 37.6725 4.0365 40.1627C6.474 42.4665 9.841 43.7383 13.5525 43.7383C17.2445 43.7383 20.228 42.2601 22.724 39.2505L22.802 39.144L19.799 35.4219L19.6755 35.5484C17.81 37.4994 15.639 38.5381 13.3835 38.5381C8.7165 38.5381 5.33 34.9425 5.33 29.9953C5.33 25.0481 8.723 21.4592 13.39 21.4592ZM25.805 16.7118H31.135V43.2123H25.805V16.7118ZM47.996 38.7711C46.293 38.7711 45.5 37.8389 45.5 35.7815V21.7056H50.895V16.7118H45.5V8.46869L40.3 11.3185V16.7118H35.815V21.7056H40.3V36.6737C40.3 40.7486 42.6595 43.5319 46.189 43.6118C48.581 43.6517 50.024 42.926 50.9015 42.4066L50.9665 42.3666L52.247 37.253L51.922 37.4394C50.492 38.3117 49.1725 38.7711 47.996 38.7711ZM56.29 16.7118H61.62V43.2123H56.29V16.7118ZM28.483 12.244C32.643 7.83614 38.077 5.51236 43.6605 5.51236C49.244 5.51236 54.678 7.82948 58.838 12.2373L58.8965 12.3106H65L64.779 11.9644C59.93 4.92642 51.857 0.738281 43.6605 0.738281C35.464 0.738281 27.3845 4.92642 22.5615 11.971L22.321 12.3173H28.4245L28.483 12.244Z" fill="#808080"/>
</svg>
