<svg width="105" height="44" viewBox="0 0 105 44" fill="none" xmlns="http://www.w3.org/2000/svg">
<path opacity="0.8" d="M21.608 20.1677C19.4446 20.1677 17.8324 21.299 17.0316 23.0842H16.9795C17.1252 22.3161 17.146 21.1848 17.146 20.4479H14.2753V40.6973H17.3124V34.5633C18.0509 34.7086 18.6437 34.7294 19.4446 34.7294C24.1563 34.7294 26.7981 31.761 26.7981 26.7895C26.8085 22.5445 24.9675 20.1677 21.608 20.1677ZM19.5382 32.363C18.6853 32.363 17.9781 32.2799 17.3228 32.0827V27.7443C17.3228 25.3364 18.5397 22.669 20.8175 22.669C22.7209 22.669 23.605 24.257 23.605 27.0904C23.605 30.8891 21.9512 32.363 19.5382 32.363ZM3.60382 20.3649C3.60382 18.7769 4.82074 17.6767 7.21298 17.6767C8.34669 17.6767 9.57401 17.8739 10.6765 18.2164L10.8429 15.466C9.67802 15.2688 8.51311 15.1235 7.37939 15.1235C2.92775 15.1235 0.337891 17.4173 0.337891 20.7074C0.337891 26.8932 8.72113 25.1911 8.72113 29.2181C8.72113 31.2835 7.01536 32.1658 4.91435 32.1658C3.52061 32.1658 2.01246 31.8544 0.941151 31.46L0.764333 34.3765C1.87724 34.6671 3.23978 34.8331 4.63352 34.8331C9.20998 34.8331 11.9871 32.2799 11.9975 28.7615C11.9871 22.7832 3.60382 24.1947 3.60382 20.3649ZM78.3353 36.9608C84.3159 32.83 93.0111 25.0665 95.9546 20.8423C96.6515 19.8459 97.1611 19.2751 97.1611 18.2268C97.1611 16.5247 95.1642 15.2688 93.7288 14.397C90.2965 22.4822 82.5685 32.5498 78.3353 36.9608ZM83.1198 10.3803C82.5789 8.2734 80.6859 5.89662 78.9177 5.15972C81.2268 11.6881 83.203 20.9876 83.7854 25.5128C84.5551 20.4064 84.1078 14.2413 83.1198 10.3803ZM82.9117 30.64C87.0513 25.326 90.3069 19.0779 90.3069 14.5838C90.3069 12.2382 88.6219 10.5983 86.4273 9.35281C86.4689 14.2309 84.7735 25.6685 82.9117 30.64ZM32.009 23.572H31.957C32.1547 22.4926 32.2379 21.2471 32.2379 20.4583H29.336V34.5425H32.3731V28.8133C32.3731 24.5891 33.7356 22.6379 36.5439 23.1464L36.6895 20.1677C34.0581 19.9186 32.6331 21.6726 32.009 23.572ZM65.4068 29.5503V22.8039H69.0991V20.4479H65.3756V15.1443L62.3593 15.9642V20.4479H59.6654V22.8039H62.3593V30.4844C62.3593 33.6292 63.2746 34.7916 66.2805 34.7916C67.2166 34.7916 68.2671 34.6567 69.0887 34.4803V31.9893C68.5479 32.1346 67.8718 32.2176 67.2478 32.2176C65.8332 32.2176 65.4068 31.6468 65.4068 29.5503ZM100.001 19.628C92.3039 27.6094 76.9831 39.5763 69.328 43.7383C79.0321 40.5 93.1047 32.9546 102.882 26.2082C103.703 25.6478 104.338 25.1184 104.338 24.2051C104.348 22.6171 101.426 20.479 100.001 19.628ZM69.0991 0.738281C73.426 5.50222 79.8434 14.9574 82.0796 18.3514C80.2699 13.4629 75.7454 3.27075 69.0991 0.738281ZM53.7056 20.1677C51.3238 20.1677 49.618 21.4132 48.7963 23.2295L48.7651 23.1983C48.9107 22.4095 48.9627 21.1848 48.9627 20.4479H46.0609V34.5322H49.098V27.7236C49.098 24.9212 50.6581 22.6794 52.7903 22.6794C54.4129 22.6794 54.8913 23.6965 54.8913 25.4506V34.5218H57.8972V24.6618C57.918 22.1812 56.9195 20.1677 53.7056 20.1677ZM39.3626 20.4583H42.3997V34.5425H39.3626V20.4583ZM40.9019 14.5527C39.8202 14.5527 38.9361 15.4037 38.9361 16.452C38.9361 17.5003 39.8202 18.3514 40.9019 18.3514C41.9524 18.3514 42.8365 17.5003 42.8365 16.452C42.8261 15.383 41.9524 14.5527 40.9019 14.5527Z" fill="#808080"/>
</svg>
