<svg width="139" height="21" viewBox="0 0 139 21" fill="none" xmlns="http://www.w3.org/2000/svg">
<path opacity="0.8" d="M25.2122 0.238281C24.6464 0.238281 24.1772 0.433266 23.8322 0.837165C23.4734 1.24107 23.294 1.82602 23.294 2.61989V17.8427C23.294 18.6366 23.4734 19.2216 23.8322 19.6255C24.191 20.0294 24.6602 20.2244 25.2122 20.2244C25.7918 20.2244 26.2748 20.0294 26.6336 19.6255C26.9924 19.2355 27.1718 18.6366 27.1718 17.8288V2.61989C27.1718 1.82602 26.9924 1.22714 26.6336 0.837165C26.2748 0.447193 25.7918 0.238281 25.2122 0.238281ZM128.781 0.252205C123.33 0.252205 118.887 4.73689 118.887 10.2383C118.887 15.7397 123.316 20.2244 128.781 20.2244C134.232 20.2244 138.676 15.7397 138.676 10.2383C138.676 4.73689 134.246 0.252205 128.781 0.252205ZM128.781 16.1854C125.538 16.1854 122.889 13.5113 122.889 10.2383C122.889 6.9653 125.524 4.2912 128.781 4.2912C132.038 4.2912 134.674 6.9653 134.674 10.2383C134.674 13.5252 132.024 16.1854 128.781 16.1854ZM84.359 0.252205C78.908 0.252205 74.4644 4.73689 74.4644 10.2383C74.4644 15.7397 78.8942 20.2244 84.359 20.2244C89.81 20.2244 94.2536 15.7397 94.2536 10.2383C94.2536 4.73689 89.8238 0.252205 84.359 0.252205ZM84.359 16.1854C81.116 16.1854 78.4664 13.5113 78.4664 10.2383C78.4664 6.9653 81.116 4.2912 84.359 4.2912C87.602 4.2912 90.2516 6.95137 90.2516 10.2383C90.2516 13.5252 87.6158 16.1854 84.359 16.1854ZM106.122 0.252205L105.832 0.238281L100.864 0.252205C100.022 0.252205 99.401 0.447193 99.0284 0.837165C98.6558 1.22714 98.4626 1.85388 98.4626 2.73132V17.7452C98.4626 18.6227 98.6558 19.2494 99.0284 19.6394C99.401 20.0294 100.022 20.2244 100.864 20.2244L105.832 20.2383C105.928 20.2383 106.025 20.2383 106.122 20.2244C109.268 20.1269 112.056 18.5391 113.808 16.1436C115.009 14.4862 115.726 12.4528 115.726 10.2522V10.2383C115.726 8.03772 115.009 5.99037 113.808 4.34692C112.056 1.93745 109.268 0.349698 106.122 0.252205ZM111.711 10.2383C111.711 11.4918 111.324 12.6478 110.676 13.6088C109.737 14.9737 108.247 15.9347 106.536 16.1436C106.053 16.1714 105.542 16.1854 104.99 16.1854H102.382V4.31906H104.976C105.528 4.31906 106.039 4.33299 106.522 4.36084C108.233 4.56976 109.737 5.53076 110.662 6.89566C111.324 7.82881 111.711 8.9848 111.711 10.2383ZM68.8616 0.335772C68.144 0.11293 67.3574 0.391483 66.9296 1.04608L60.968 10.2244L55.0064 1.04608C54.5786 0.391483 53.8058 0.11293 53.0744 0.335772C52.3568 0.558613 51.86 1.25499 51.86 2.03494V18.3302C51.86 19.3051 52.6328 20.099 53.5712 20.099C54.5234 20.099 55.2824 19.3051 55.2824 18.3302V7.84274L59.519 14.3608L59.5328 14.3748V14.3887L59.5466 14.4166C59.5742 14.4583 59.6018 14.5001 59.6294 14.528L59.6708 14.5698L59.7398 14.6533L59.8088 14.723L59.864 14.7647L59.9744 14.8483L60.002 14.8762C60.0434 14.904 60.0848 14.9319 60.1124 14.9458L60.14 14.9597C60.1676 14.9737 60.1952 14.9876 60.2366 15.0015C60.416 15.0851 60.5954 15.1408 60.7748 15.1547C60.8162 15.1547 60.8438 15.1547 60.8852 15.1686H60.9956C61.037 15.1686 61.0646 15.1686 61.106 15.1547C61.2854 15.1408 61.4648 15.0851 61.6442 15.0015C61.6718 14.9876 61.6994 14.9737 61.7408 14.9597L61.7822 14.9458C61.8236 14.9179 61.865 14.904 61.8926 14.8762L61.9202 14.8483L62.0306 14.7647L62.0858 14.709L62.1548 14.6394C62.1824 14.6115 62.21 14.5837 62.2238 14.5558L62.2652 14.514C62.2928 14.4723 62.3204 14.4305 62.348 14.4026L62.3618 14.3748V14.3608L62.3756 14.3469L66.6122 7.82881V18.3163C66.6122 19.2912 67.385 20.0851 68.3234 20.0851C69.2756 20.0851 70.0346 19.2912 70.0346 18.3163V2.02101C70.0898 1.24107 69.593 0.558613 68.8616 0.335772ZM46.0226 16.1157H37.025L47.168 4.17978C47.789 3.38591 47.8166 2.06279 47.2646 1.43605C46.6574 0.767526 45.9536 0.656109 45.2774 0.656109H33.5888C32.6366 0.656109 31.8776 1.28285 31.8776 2.29956C31.8776 3.31627 32.6504 4.15193 33.5888 4.15193H42.269L31.7672 16.45C31.1738 17.1742 31.229 18.0656 31.505 18.7341C31.781 19.4026 32.5262 19.8205 33.2024 19.8205H46.0364C46.9886 19.8205 47.6786 18.9987 47.6786 17.9681C47.6648 16.9514 46.9748 16.1157 46.0226 16.1157ZM16.7942 8.63661H12.0746C11.0396 8.63661 10.2116 9.48619 10.2116 10.5308C10.2116 11.5753 11.0396 12.4249 12.0746 12.4249H14.9312V15.2522C14.0894 15.7954 12.6404 16.3525 10.5704 16.3525C6.89958 16.3525 4.89858 13.1491 4.89858 10.4333C4.89858 5.65611 8.23818 4.04051 10.6394 4.04051C13.2338 4.04051 15.2072 5.32185 15.2624 5.3497C16.118 5.92073 17.2634 5.69789 17.8292 4.82045C18.395 3.94302 18.1742 2.7731 17.3186 2.18814C17.1944 2.10458 14.4206 0.238281 10.6256 0.238281C6.78918 0.238281 0.675781 3.00987 0.675781 10.4333C0.675781 12.801 1.60038 15.1965 3.22878 17.021C5.06418 19.0962 7.65858 20.2244 10.5014 20.2244C14.1032 20.2244 16.8494 18.7759 18.0914 17.5503C18.4502 17.1881 18.6572 16.7007 18.6572 16.1854V10.5308C18.6572 9.48619 17.8292 8.63661 16.7942 8.63661Z" fill="#808080"/>
</svg>
