<svg width="119" height="21" viewBox="0 0 119 21" fill="none" xmlns="http://www.w3.org/2000/svg">
<path opacity="0.8" d="M11.3661 11.1186L7.20111 0.238281H0.015625V19.9566H5.20711V6.83453L10.2334 19.9566H12.4988L17.4779 6.83453V19.9566H22.5514V0.238281H15.4957L11.3661 11.1186ZM30.7516 5.25002C28.557 5.25002 26.091 5.89556 24.2504 7.46833L25.9494 10.6256C27.1057 9.65143 28.5098 9.08804 29.9374 9.08804C31.7781 9.08804 32.8281 9.94485 32.8281 11.189V12.6092C32.0022 11.5411 30.3032 10.919 28.4036 10.919C26.209 10.919 23.4835 12.081 23.4835 15.5317C23.4835 18.7242 26.1972 20.2383 28.3918 20.2383C30.2324 20.2383 32.0022 19.5223 32.8281 18.466V19.9566H37.4297V10.9542C37.4179 6.51762 34.1968 5.25002 30.7516 5.25002ZM32.8163 16.2125C32.3444 16.8932 31.3061 17.2453 30.2914 17.2453C29.0997 17.2453 28.0142 16.7171 28.0142 15.5904C28.0142 14.4636 29.0879 13.9355 30.2796 13.9355C31.2943 13.9355 32.3444 14.2641 32.8163 14.9448V16.2125ZM42.7156 9.7688C42.7156 9.20542 43.4235 8.79462 44.4972 8.79462C46.2198 8.79462 47.8598 9.53406 48.7212 10.3557L50.4674 7.12795C48.9217 6.00119 46.9041 5.23828 44.4618 5.23828C40.5092 5.23828 38.3146 7.42138 38.3146 9.94485C38.3146 15.743 46.6564 13.912 46.6564 15.6726C46.6564 16.2946 46.09 16.6819 44.7214 16.6819C43.0223 16.6819 40.7334 15.7078 39.6715 14.7571L37.7719 18.0082C39.2821 19.3697 41.9368 20.2265 44.5208 20.2265C48.6268 20.2265 51.0219 18.2782 51.0219 15.5552C51.0337 9.71011 42.7156 11.3298 42.7156 9.7688ZM61.1217 5.25002C58.7148 5.25002 57.1219 6.34157 56.178 7.35096V0.238281H51.5765V19.9566H56.178V10.6608C56.768 10.0153 57.5703 9.27584 58.9035 9.27584C60.3548 9.27584 61.2515 9.83922 61.2515 11.5763V19.9566H65.853V9.71011C65.853 7.081 64.39 5.25002 61.1217 5.25002ZM73.7701 5.25002C71.5755 5.25002 69.1449 5.89556 67.3043 7.46833L69.0151 10.6256C70.1714 9.65143 71.5165 9.08804 72.9441 9.08804C74.7848 9.08804 75.7758 9.94485 75.7758 11.189V12.6092C75.0679 11.5411 73.3217 10.919 71.4221 10.919C69.2275 10.919 66.5374 12.081 66.5374 15.5317C66.5374 18.7242 69.2039 20.2383 71.3985 20.2383C73.2391 20.2383 75.0797 19.5223 75.7877 18.466V19.9566H80.3892V10.9542C80.3656 6.51762 77.2153 5.25002 73.7701 5.25002ZM75.7641 16.2125C75.4101 16.8932 74.3128 17.2453 73.3099 17.2453C72.1182 17.2453 71.0681 16.7171 71.0681 15.5904C71.0681 14.4636 72.0946 13.9355 73.2863 13.9355C74.301 13.9355 75.4101 14.2641 75.7641 14.9448V16.2125ZM90.9019 5.25002C89.3209 5.25002 87.6809 5.87208 86.619 7.29227V0.250019H82.0174V19.9683H86.619V18.2312C87.6809 19.5927 89.2973 20.2383 90.9019 20.2383C94.4416 20.2383 97.2261 17.574 97.2261 12.7265C97.2261 8.05518 94.5006 5.25002 90.9019 5.25002ZM89.3917 16.2125C88.4124 16.2125 87.2089 15.7078 86.619 14.9448V10.5669C87.2089 9.80401 88.4124 9.2641 89.3917 9.2641C91.2087 9.2641 92.5656 10.5904 92.5656 12.7265C92.5656 14.8744 91.1969 16.2125 89.3917 16.2125ZM97.8279 0.238281H102.429V19.9566H97.8279V0.238281ZM118.004 13.196C118.004 8.34861 114.901 5.23828 110.653 5.23828C106.17 5.23828 103.043 8.58335 103.043 12.7148C103.043 17.351 106.429 20.2265 110.854 20.2265C113.048 20.2265 115.432 19.6045 116.859 18.3369L114.865 15.3556C114.039 16.1186 112.364 16.6702 111.361 16.6702C109.285 16.6702 108.093 15.4965 107.762 14.4402H118.016V13.196H118.004ZM107.692 11.1538C107.869 10.0974 108.647 8.93546 110.63 8.93546C112.742 8.93546 113.485 10.2148 113.603 11.1538H107.692Z" fill="#808080"/>
</svg>
