<svg width="127" height="21" viewBox="0 0 127 21" fill="none" xmlns="http://www.w3.org/2000/svg">
<path opacity="0.8" d="M53.5328 8.76693C52.5123 8.23609 50.8241 8.05483 48.3169 7.9642C46.4523 7.89946 45.1042 7.9383 45.1042 6.20336C45.1042 4.572 46.5279 4.49431 46.7295 4.46842C47.1956 4.40368 48.6823 4.41663 49.098 4.48137C49.5138 4.5461 50.5847 4.86978 50.6603 6.12568L50.6729 6.66947H55.6998V5.42652C55.662 2.112 53.8478 0.351166 49.3626 0.273482C46.4145 0.221693 45.331 0.144009 43.2774 0.726639C41.312 1.29632 39.7498 2.97947 39.7624 5.80199C39.775 8.35262 40.2411 10.7349 42.8617 11.6412C44.0711 12.0556 46.6665 12.185 47.4602 12.2368C48.6571 12.3016 50.7989 12.1591 50.7863 14.0753C50.7863 15.9657 49.4256 15.9139 47.9894 15.9268C46.9563 15.9398 44.8019 16.0433 44.8019 14.1401L44.7641 13.4409H39.7246V14.5544C39.7246 15.6161 39.6994 19.5909 44.2979 20.0441C48.6067 20.4713 51.6556 20.0959 53.117 19.5391C55.3092 18.7234 56.1659 16.6907 56.1533 14.1271C56.1659 10.7867 55.2714 9.6603 53.5328 8.76693ZM27.8188 0.273482H27.8062C24.0895 0.364114 19.3902 0.23464 18.9745 6.87663C18.9241 7.69231 18.9241 8.9482 18.9241 10.2559C18.9241 11.5636 18.9241 12.8195 18.9745 13.6351C19.3776 20.0052 23.8124 20.1476 27.8062 20.2383H27.8188C31.8126 20.1476 36.1213 19.9923 36.5245 13.6351C36.5749 12.8195 36.6001 11.5636 36.6001 10.2559C36.6001 8.9482 36.5623 7.69231 36.5245 6.87663C36.1087 0.390008 31.9512 0.364114 27.8188 0.273482ZM31.2456 12.1721C31.233 14.2954 30.7795 15.8621 27.8188 15.7585H27.8062C24.8455 15.8621 24.2659 14.2954 24.2533 12.1721C24.2533 11.3952 24.2155 10.7997 24.2155 10.2688C24.2155 9.73798 24.2533 9.14241 24.2533 8.36557C24.2659 6.16452 24.9211 4.66263 27.8062 4.76621H27.8188C30.7795 4.66263 31.233 6.24221 31.2456 8.36557C31.2582 9.14241 31.2834 9.73798 31.2834 10.2688C31.2834 10.7997 31.2582 11.3952 31.2456 12.1721ZM0.353516 5.47831H6.17413V19.8757H11.705V5.47831H17.2484V0.661903H0.353516V5.47831ZM80.3807 0.674847H85.6974V19.9146H80.3807V0.674847ZM120.432 0.674847H112.873L107.115 19.9275H112.633L113.654 16.2893H119.777L120.797 20.0052H126.354L120.432 0.674847ZM114.763 12.0297L116.59 5.43947L118.454 12.0297H114.763ZM102.781 9.84157C102.781 9.84157 102.806 9.84156 102.857 9.82862C103.386 9.69914 105.641 8.9223 105.767 6.17747C105.893 3.52326 105.112 0.506531 100.136 0.674847H89.9054V19.9146H99.5812C104.671 19.9146 106.057 18.102 106.133 14.7357C106.208 12.0297 104.81 10.3336 102.781 9.84157ZM95.2346 4.98631H98.4599C100.06 4.98631 100.375 5.56894 100.375 6.64357C100.375 7.78294 99.7702 8.24904 98.6993 8.24904H95.2346V4.98631ZM98.7245 15.5384H95.2346V11.9779H99.0772C100.123 11.9779 100.652 12.444 100.652 13.6481C100.652 15.1111 99.871 15.5254 98.7245 15.5384ZM70.8813 7.74409H64.7961V0.661903H59.4794V19.9146H64.7961V12.5087H70.8813V19.9016H76.1979V0.661903H70.8813V7.74409Z" fill="#808080"/>
</svg>
