<svg width="135" height="21" viewBox="0 0 135 21" fill="none" xmlns="http://www.w3.org/2000/svg">
<path opacity="0.8" d="M76.8973 6.22164C68.8975 6.22164 63.4973 8.84881 62.0635 13.4429C61.5543 15.0798 61.7285 16.469 62.5861 17.5419C64.0199 19.3163 67.2761 20.2378 72.0465 20.2378C80.0463 20.2378 85.4465 17.6107 86.8803 13.0303C87.3895 11.3797 87.2287 10.0042 86.3711 8.9451C84.9373 7.15697 81.6543 6.22164 76.8973 6.22164ZM77.7013 13.4429C76.7231 16.5653 75.4903 17.7895 73.2793 17.7895C72.3145 17.7895 71.6311 17.5281 71.2157 16.9917C70.5993 16.2352 70.5993 15.0385 71.2425 13.0303C72.2341 9.90794 73.4669 8.68376 75.6645 8.68376C76.6427 8.68376 77.3127 8.9451 77.7415 9.46778C78.3445 10.2243 78.3311 11.4072 77.7013 13.4429ZM133.888 8.93135C132.467 7.15697 129.184 6.22164 124.427 6.22164C116.427 6.22164 111.014 8.84881 109.58 13.4429C109.057 15.0935 109.245 16.469 110.103 17.5419C111.523 19.3163 114.793 20.2378 119.55 20.2378C127.549 20.2378 132.963 17.6107 134.397 13.0303C134.919 11.366 134.745 9.99047 133.888 8.93135ZM125.231 13.4429C124.253 16.5653 123.02 17.7895 120.809 17.7895C119.844 17.7895 119.161 17.5281 118.732 16.9917C118.129 16.2352 118.129 15.0385 118.759 13.0303C119.737 9.90794 120.983 8.68376 123.181 8.68376C124.146 8.68376 124.829 8.9451 125.258 9.46778C125.874 10.2243 125.861 11.4072 125.231 13.4429ZM6.81521 0.238281C6.72141 0.568398 0.879006 19.2337 0.691406 19.7977H9.40141C9.49522 19.4951 15.351 0.80223 15.5252 0.238281H6.81521ZM104.019 6.6618C103.872 6.85436 97.0509 15.8775 97.0509 15.8775C97.0509 15.8775 95.9387 7.04693 95.8985 6.6618H87.8987C87.9657 7.15697 89.5335 19.4125 89.5737 19.7977H102.599C102.746 19.6051 111.992 7.34954 112.501 6.6618H104.019ZM24.2084 17.7069C22.8282 17.6382 22.0242 17.5144 21.2738 16.9779C20.711 16.579 20.8718 15.8638 20.8718 15.8638C20.8718 15.8638 36.188 12.4938 36.4694 12.4251C36.5766 12.1775 36.724 11.6548 36.724 11.0221C36.724 10.0455 36.456 9.23395 35.9334 8.57372C34.6738 7.00567 31.8598 6.22164 27.5718 6.22164C19.84 6.22164 14.6006 8.8213 13.1802 13.3466C12.5906 15.2311 12.738 16.7166 13.609 17.817C15.351 19.9627 19.5586 20.2516 21.917 20.2378C28.1212 20.1966 31.2702 19.1925 31.8464 18.9999C31.9 18.8348 33.2132 16.0151 33.441 15.3549C32.1412 15.8913 27.5718 17.8582 24.2084 17.7069ZM22.185 11.0083C22.7076 9.33023 24.3022 8.32613 26.4328 8.32613C27.9068 8.32613 28.6304 8.83506 28.9788 9.27522C29.2602 9.61909 29.5282 10.2243 29.354 11.0496L21.1264 14.8597L22.185 11.0083ZM61.3801 8.28487C60.2545 6.93689 56.7705 6.24915 51.1157 6.24915C46.9349 6.24915 42.9015 6.74433 39.8462 7.28076C39.806 7.3908 35.7592 19.6189 35.6922 19.8389H44.4693C44.5229 19.6739 48.1543 8.73877 48.1543 8.73877C51.2497 8.50494 52.1475 8.84882 52.5495 9.33024C52.7773 9.61909 52.9515 9.96296 52.8309 10.3756L49.7221 19.8389H58.4991L61.8223 9.71537C61.8893 9.12391 61.7151 8.68376 61.3801 8.28487Z" fill="#808080"/>
</svg>
