<svg width="129" height="30" viewBox="0 0 129 30" fill="none" xmlns="http://www.w3.org/2000/svg">
<path d="M44.9252 11.7797C44.4351 12.2956 44.0998 12.9275 43.6226 13.4563C43.6742 12.4117 43.6742 11.367 43.6742 10.3224H38.2059V28.9196H43.945V20.0337C43.9322 18.5248 44.4996 16.8998 45.7764 16.0099C46.9758 15.1587 48.5234 15.0942 49.9292 15.2619V10.3611C48.1623 9.87099 46.1633 10.4385 44.9252 11.7797ZM38.193 10.3224H38.2059V10.3095L38.193 10.3224ZM36.8905 21.1815C36.9034 18.4603 36.452 15.5843 34.827 13.3273C32.1831 9.50988 26.5214 8.74896 22.6136 10.9672V10.9414C20.073 12.3343 18.3835 15.0168 18.0224 17.8541C17.6742 20.4464 18.074 23.2321 19.5829 25.4246C20.9628 27.4881 23.2585 28.8681 25.696 29.2679C28.0174 29.6548 30.5065 29.4355 32.5958 28.2877C34.5432 27.2946 36.0651 25.502 36.6454 23.3869C34.8012 23.3353 32.9569 23.3224 31.1256 23.3869C30.2099 25.502 27.3339 25.7986 25.5283 24.7411C24.2515 24.0188 23.6583 22.5615 23.4519 21.1815C27.9272 21.1815 32.4153 21.2331 36.8905 21.1815ZM23.4777 17.5188C23.7615 16.2033 24.3934 14.8234 25.6702 14.2172C26.9986 13.6369 28.7397 13.6756 29.8359 14.7202C30.6226 15.4424 30.9708 16.5 31.1385 17.5188H23.4777ZM13.2763 10.3224C11.9995 14.2946 10.942 18.3571 9.56203 22.2907C8.4271 18.2797 7.15031 14.3075 5.9638 10.3095H0.03125C2.32689 16.4742 4.3388 22.7292 6.58285 28.9067C8.56897 28.8552 10.5422 28.9067 12.5283 28.9067C14.6821 22.7034 16.823 16.5 19.0154 10.3095C17.1067 10.3224 15.1851 10.2708 13.2763 10.3224ZM73.5046 15.5069C73.7497 15.1974 74.0721 14.9266 74.2398 14.5654L74.2914 10.3095H58.7506V10.3353C58.7506 11.8313 58.6991 13.3402 58.7506 14.8363C61.6137 14.7847 64.4897 14.8621 67.3528 14.7847C67.5334 14.991 67.1981 15.1458 67.1078 15.3006C64.2963 18.3958 61.5106 21.504 58.7377 24.625V28.9325C64.0512 28.881 69.3647 28.881 74.6783 28.9325V24.4444L65.5344 24.3928C68.2298 21.4653 70.835 18.4474 73.5046 15.5069ZM51.4381 10.3353L51.451 10.3611V28.9583H57.203C57.203 22.7549 57.1514 16.5516 57.203 10.3482C55.2814 10.3353 53.3598 10.2837 51.4381 10.3353ZM126.034 0.997952C123.789 6.04062 121.378 11.0188 119.043 16.0228C118.283 14.0754 117.302 12.2182 116.464 10.3095C115.497 10.2579 114.53 10.3095 113.575 10.3095C114.968 13.4176 116.516 16.4742 117.857 19.6081H120.269C123.183 13.3918 126.034 7.13686 129 0.946365C128.007 0.946365 127.027 0.933468 126.034 0.997952ZM113.214 13.9335C112.672 12.3343 111.499 10.9543 109.938 10.2837C107.746 9.38091 105.037 9.54856 103.142 11.0317V11.0059C102.432 11.5089 101.955 12.2311 101.375 12.8631C101.375 12.0119 101.375 11.1478 101.426 10.2966H95.8936V28.9067C97.7765 28.9067 99.6595 28.8552 101.542 28.9067V18.5893C101.517 17.4414 101.891 16.2291 102.716 15.4037C103.761 14.3591 105.553 14.2043 106.766 15.0297C107.578 15.623 107.939 16.6676 107.939 17.6349V28.8939C109.848 28.8939 111.757 28.9454 113.665 28.8939V19.0664C113.653 17.3512 113.833 15.5714 113.214 13.9335ZM51.4639 3.65471H51.5026L51.451 8.76186H57.203C57.203 7.05947 57.1514 5.35709 57.203 3.65471H51.4639ZM91.5344 12.2311C89.1743 10.0902 85.7696 9.44539 82.6872 9.99996C79.6049 10.5158 76.832 12.6567 75.6842 15.5843C74.9104 17.2867 74.833 19.2083 74.9749 21.0397C75.3231 24.2252 77.3221 27.2302 80.2626 28.5585C84.0672 30.2996 89.0453 29.7321 91.9987 26.6369C95.7517 22.7807 95.5712 15.8164 91.5344 12.2311ZM87.6783 23.9801C86.2983 25.7212 83.2547 25.7728 81.8747 23.9801C80.585 22.3293 80.5592 20.0982 80.7398 18.1121C80.9848 16.5387 81.7199 14.7718 83.3449 14.2043V14.2301C84.5186 13.8045 85.9114 13.9077 86.9561 14.6299C88.2715 15.5714 88.8003 17.2609 88.8906 18.8085C88.9938 20.6012 88.839 22.5486 87.6783 23.9801Z" fill="#808080"/>
</svg>
